<?xml version="1.0" encoding="utf-8"?>
<!-- Generator: Adobe Illustrator 24.1.2, SVG Export Plug-In . SVG Version: 6.00 Build 0)  -->
<svg version="1.1" id="Layer_1" xmlns="http://www.w3.org/2000/svg" xmlns:xlink="http://www.w3.org/1999/xlink" x="0px" y="0px"
	 viewBox="0 0 131.5 23.25" style="enable-background:new 0 0 131.5 23.25;" xml:space="preserve">
<style type="text/css">
	.st0{fill:#FFFFFF;}
</style>
<path class="st0" d="M15.78,8.32c-1.83-1.76-4.75-1.73-6.52,0.07c-1.81,1.84-1.77,4.82,0.09,6.65c1.63,1.6,4.12,1.71,5.93,0.38
	l1.02,1.02l0.89-0.89l-1-1C17.72,12.65,17.58,10.04,15.78,8.32z M10.2,14.05c-1.29-1.29-1.32-3.42-0.06-4.72
	c1.31-1.36,3.46-1.37,4.82-0.03c1.18,1.17,1.3,3.05,0.36,4.37l-1.77-1.77l-0.89,0.89l1.75,1.75C13.11,15.33,11.32,15.16,10.2,14.05z
	 M37.66,13.94h-3.82l-0.99,2.17h-1.45l4.41-9.48l4.26,9.48h-1.47L37.66,13.94z M37.11,12.67l-1.32-3.03l-1.39,3.03H37.11z
	 M22.83,7.18v5.37c0,0.77,0.13,1.33,0.38,1.68c0.37,0.51,0.9,0.77,1.58,0.77c0.68,0,1.21-0.26,1.58-0.77
	c0.25-0.34,0.38-0.9,0.38-1.68V7.18h1.35v5.74c0,0.94-0.29,1.71-0.88,2.32c-0.66,0.68-1.47,1.02-2.43,1.02
	c-0.96,0-1.77-0.34-2.42-1.02c-0.59-0.61-0.88-1.38-0.88-2.32V7.18H22.83z M47.49,12.3l2.76,3.8h-1.65l-2.55-3.65h-0.24v3.65h-1.35
	V7.18h1.58c1.18,0,2.03,0.22,2.55,0.66c0.58,0.49,0.87,1.14,0.87,1.95c0,0.63-0.18,1.17-0.54,1.63
	C48.56,11.88,48.08,12.17,47.49,12.3z M45.82,11.27h0.43c1.28,0,1.91-0.49,1.91-1.46c0-0.91-0.62-1.37-1.86-1.37h-0.48V11.27z
	 M57.96,8.44v7.66h-1.35V8.44h-2.05V7.18h5.44v1.27H57.96z M70.14,8.44h-3.58v2.14h3.47v1.27h-3.47v2.98h3.58v1.27h-4.92V7.18h4.92
	V8.44z M78.94,12.3l2.76,3.8h-1.65l-2.55-3.65h-0.24v3.65h-1.35V7.18h1.58c1.18,0,2.03,0.22,2.55,0.66
	c0.58,0.49,0.87,1.14,0.87,1.95c0,0.63-0.18,1.17-0.54,1.63C80.01,11.88,79.54,12.17,78.94,12.3z M77.27,11.27h0.43
	c1.28,0,1.91-0.49,1.91-1.46c0-0.91-0.62-1.37-1.86-1.37h-0.48V11.27z"/>
<path class="st0" d="M100.13,13.94h-3.82l-0.99,2.17h-1.45l4.41-9.48l4.26,9.48h-1.47L100.13,13.94z M99.58,12.67l-1.32-3.03
	l-1.39,3.03H99.58z"/>
<path class="st0" d="M89.77,7.18v5.77c0,0.69-0.05,1.2-0.14,1.54c-0.1,0.38-0.26,0.71-0.49,0.98c-0.45,0.53-1.05,0.79-1.79,0.79
	c-0.56,0-1.09-0.15-1.58-0.44l0.66-1.15c0.33,0.22,0.63,0.33,0.92,0.33c0.4,0,0.68-0.15,0.83-0.46c0.16-0.3,0.24-0.84,0.24-1.59
	V7.18H89.77z"/>
<path class="st0" d="M112.29,7.66v1.59c-0.78-0.65-1.58-0.98-2.42-0.98c-0.92,0-1.69,0.33-2.32,0.99c-0.63,0.65-0.95,1.46-0.95,2.4
	c0,0.94,0.32,1.73,0.95,2.37c0.63,0.64,1.41,0.96,2.32,0.96c0.47,0,0.88-0.08,1.21-0.23c0.18-0.08,0.38-0.18,0.58-0.31
	c0.2-0.13,0.41-0.29,0.63-0.47v1.62c-0.77,0.44-1.58,0.65-2.43,0.65c-1.27,0-2.36-0.44-3.26-1.33c-0.9-0.9-1.35-1.98-1.35-3.25
	c0-1.14,0.38-2.15,1.13-3.04C107.3,7.55,108.5,7,109.96,7C110.76,7,111.54,7.22,112.29,7.66z"/>
<path class="st0" d="M118.15,10.74l3.47-3.56h1.8l-4.03,4.04l4.06,4.88h-1.8l-3.21-3.97l-0.28,0.28v3.69h-1.35V7.18h1.35V10.74z"/>
</svg>
