<?xml version="1.0" encoding="utf-8"?>
<!-- Generator: Adobe Illustrator 24.1.2, SVG Export Plug-In . SVG Version: 6.00 Build 0)  -->
<svg version="1.1" id="Layer_1" xmlns="http://www.w3.org/2000/svg" xmlns:xlink="http://www.w3.org/1999/xlink" x="0px" y="0px"
	 viewBox="0 0 135 70" style="enable-background:new 0 0 135 70;" xml:space="preserve">
<g>
	<path d="M79.47,41.75l2.98-2.98L59.77,16.09c1.77-1.15,3.87-1.82,6.13-1.82c0.03,0,0.07,0,0.1,0V9.29c-0.03,0-0.07,0-0.1,0
		c-8.98,0-16.25,7.28-16.25,16.25c0,0.09,0.01,0.18,0.01,0.27h4.98c0-0.09-0.01-0.18-0.01-0.27c0-2.44,0.78-4.68,2.09-6.53
		L79.47,41.75z"/>
	<path d="M70.67,35.56c-1.43,0.68-3.02,1.08-4.71,1.09c-0.03,0-0.07,0.01-0.1,0.01c-5.44,0-9.95-3.87-10.98-9.01h-5.03
		c1.08,7.89,7.83,13.97,16.01,13.97c0.03,0,0.07,0,0.1,0c3.07-0.02,5.92-0.91,8.36-2.4L70.67,35.56z"/>
	<path d="M67.86,9.38v5.03c5.24,0.95,9.23,5.51,9.23,11.02c0,0.09-0.01,0.18-0.01,0.26c-0.03,1.48-0.36,2.88-0.91,4.16l3.69,3.69
		c1.34-2.31,2.14-4.99,2.19-7.85c0-0.09,0.01-0.18,0.01-0.26C82.05,17.17,75.86,10.37,67.86,9.38z"/>
</g>
<path d="M15.78,52.07c-1.83-1.76-4.75-1.73-6.52,0.07c-1.81,1.84-1.77,4.82,0.09,6.65c1.63,1.6,4.12,1.71,5.93,0.38l1.02,1.02
	l0.89-0.89l-1-1C17.72,56.4,17.58,53.79,15.78,52.07z M10.2,57.8c-1.29-1.29-1.32-3.42-0.06-4.72c1.31-1.36,3.46-1.37,4.82-0.03
	c1.18,1.17,1.3,3.05,0.36,4.37l-1.77-1.77l-0.89,0.89l1.75,1.75C13.11,59.08,11.32,58.91,10.2,57.8z M37.66,57.69h-3.82l-0.99,2.17
	h-1.45l4.41-9.48l4.26,9.48h-1.47L37.66,57.69z M37.11,56.42l-1.32-3.03l-1.39,3.03H37.11z M22.83,50.93v5.37
	c0,0.77,0.13,1.33,0.38,1.68c0.37,0.51,0.9,0.77,1.58,0.77c0.68,0,1.21-0.26,1.58-0.77c0.25-0.34,0.38-0.9,0.38-1.68v-5.37h1.35
	v5.74c0,0.94-0.29,1.71-0.88,2.32c-0.66,0.68-1.47,1.02-2.43,1.02c-0.96,0-1.77-0.34-2.42-1.02c-0.59-0.61-0.88-1.38-0.88-2.32
	v-5.74H22.83z M47.49,56.05l2.76,3.8h-1.65l-2.55-3.65h-0.24v3.65h-1.35v-8.92h1.58c1.18,0,2.03,0.22,2.55,0.66
	c0.58,0.49,0.87,1.14,0.87,1.95c0,0.63-0.18,1.17-0.54,1.63C48.56,55.63,48.08,55.92,47.49,56.05z M45.82,55.02h0.43
	c1.28,0,1.91-0.49,1.91-1.46c0-0.91-0.62-1.37-1.86-1.37h-0.48V55.02z M57.96,52.19v7.66h-1.35v-7.66h-2.05v-1.27h5.44v1.27H57.96z
	 M70.14,52.19h-3.58v2.14h3.47v1.27h-3.47v2.98h3.58v1.27h-4.92v-8.92h4.92V52.19z M78.94,56.05l2.76,3.8h-1.65l-2.55-3.65h-0.24
	v3.65h-1.35v-8.92h1.58c1.18,0,2.03,0.22,2.55,0.66c0.58,0.49,0.87,1.14,0.87,1.95c0,0.63-0.18,1.17-0.54,1.63
	C80.01,55.63,79.54,55.92,78.94,56.05z M77.27,55.02h0.43c1.28,0,1.91-0.49,1.91-1.46c0-0.91-0.62-1.37-1.86-1.37h-0.48V55.02z"/>
<g>
	<path d="M100.13,57.69h-3.82l-0.99,2.17h-1.45l4.41-9.48l4.26,9.48h-1.47L100.13,57.69z M99.58,56.42l-1.32-3.03l-1.39,3.03H99.58z
		"/>
	<path d="M89.77,50.93v5.77c0,0.69-0.05,1.2-0.14,1.54c-0.1,0.38-0.26,0.71-0.49,0.98c-0.45,0.53-1.05,0.79-1.79,0.79
		c-0.56,0-1.09-0.15-1.58-0.44l0.66-1.15c0.33,0.22,0.63,0.33,0.92,0.33c0.4,0,0.68-0.15,0.83-0.46c0.16-0.3,0.24-0.84,0.24-1.59
		v-5.77H89.77z"/>
	<path d="M112.29,51.41V53c-0.78-0.65-1.58-0.98-2.42-0.98c-0.92,0-1.69,0.33-2.32,0.99c-0.63,0.65-0.95,1.46-0.95,2.4
		c0,0.94,0.32,1.73,0.95,2.37c0.63,0.64,1.41,0.96,2.32,0.96c0.47,0,0.88-0.08,1.21-0.23c0.18-0.08,0.38-0.18,0.58-0.31
		c0.2-0.13,0.41-0.29,0.63-0.47v1.62c-0.77,0.44-1.58,0.65-2.43,0.65c-1.27,0-2.36-0.44-3.26-1.33c-0.9-0.9-1.35-1.98-1.35-3.25
		c0-1.14,0.38-2.15,1.13-3.04c0.92-1.09,2.12-1.64,3.59-1.64C110.76,50.75,111.54,50.97,112.29,51.41z"/>
	<path d="M118.15,54.49l3.47-3.56h1.8l-4.03,4.04l4.06,4.88h-1.8l-3.21-3.97l-0.28,0.28v3.69h-1.35v-8.92h1.35V54.49z"/>
</g>
</svg>
