<svg id="Layer_1" data-name="Layer 1" xmlns="http://www.w3.org/2000/svg" xmlns:xlink="http://www.w3.org/1999/xlink" viewBox="0 0 166.19 32.49"><defs><style>.cls-1{fill:url(#linear-gradient);}.cls-2{fill:url(#linear-gradient-2);}.cls-3{fill:#2062af;}</style><linearGradient id="linear-gradient" x1="43.14" y1="28.09" x2="19.36" y2="52.3" gradientTransform="matrix(1, 0, 0, -1, 0, 72)" gradientUnits="userSpaceOnUse"><stop offset="0" stop-color="#6f7481"/><stop offset="0.23" stop-color="#575b62"/><stop offset="0.76" stop-color="#222325"/><stop offset="1" stop-color="#010101"/></linearGradient><linearGradient id="linear-gradient-2" x1="133.67" y1="42.48" x2="52.41" y2="42.48" gradientTransform="matrix(1, 0, 0, -1, 0, 72)" gradientUnits="userSpaceOnUse"><stop offset="0" stop-color="#6f7481"/><stop offset="0.31" stop-color="#505861"/><stop offset="0.79" stop-color="#1c262a"/><stop offset="1"/></linearGradient></defs><path class="cls-1" d="M43.31,46.26l3-3-22.7-22.7a11.21,11.21,0,0,1,6.14-1.82h.1v-5h-.1A16.26,16.26,0,0,0,13.47,30c0,.09,0,.18,0,.27h5c0-.09,0-.18,0-.27a11.16,11.16,0,0,1,2.1-6.53Z" transform="translate(-13.47 -13.77)"/><path class="cls-2" d="M61.06,26a5.11,5.11,0,0,0-7.18.08,5.17,5.17,0,0,0,.1,7.32,5,5,0,0,0,6.53.42l1.12,1.12,1-1-1.1-1.1A5,5,0,0,0,61.06,26Zm-6.15,6.31a3.71,3.71,0,1,1,5.64-.42L58.6,29.92l-1,1,1.93,1.93A3.86,3.86,0,0,1,54.91,32.29Zm30.25-.12H81l-1.09,2.39h-1.6l4.86-10.44,4.69,10.44H86.2Zm-.61-1.4L83.1,27.43l-1.53,3.34ZM68.82,24.72v5.92a3.28,3.28,0,0,0,.42,1.85,2.21,2.21,0,0,0,3.48,0,3.16,3.16,0,0,0,.42-1.85V24.72h1.49v6.33a3.51,3.51,0,0,1-1,2.55A3.59,3.59,0,0,1,71,34.72a3.57,3.57,0,0,1-3.63-3.67V24.72ZM96,30.36l3,4.19H97.21l-2.81-4h-.26v4H92.65V24.72h1.74a4.3,4.3,0,0,1,2.81.73,2.68,2.68,0,0,1,1,2.15,2.78,2.78,0,0,1-.6,1.79A2.6,2.6,0,0,1,96,30.36Zm-1.84-1.13h.47c1.41,0,2.11-.54,2.11-1.61s-.69-1.51-2-1.51h-.53Zm13.37-3.12v8.44H106V26.11h-2.25v-1.4h6v1.4Zm13.42,0h-4v2.36h3.83v1.4H117v3.28h4v1.4h-5.42V24.72h5.42Zm9.69,4.25,3,4.19h-1.82l-2.8-4h-.27v4h-1.49V24.72H129a4.3,4.3,0,0,1,2.81.73,2.68,2.68,0,0,1,1,2.15,2.83,2.83,0,0,1-.59,1.79A2.62,2.62,0,0,1,130.63,30.36Zm-1.84-1.13h.48c1.41,0,2.1-.54,2.1-1.61s-.68-1.51-2.05-1.51h-.53Z" transform="translate(-13.47 -13.77)"/><path class="cls-3" d="M154,32.17h-4.2l-1.09,2.39h-1.6l4.86-10.44,4.69,10.44H155Zm-.6-1.4-1.46-3.34-1.53,3.34Z" transform="translate(-13.47 -13.77)"/><path class="cls-3" d="M142.56,24.72v6.36a7,7,0,0,1-.15,1.69,2.68,2.68,0,0,1-.54,1.08,2.45,2.45,0,0,1-2,.87,3.36,3.36,0,0,1-1.74-.48l.72-1.27a1.83,1.83,0,0,0,1,.37.92.92,0,0,0,.91-.51,4.07,4.07,0,0,0,.26-1.75V24.72Z" transform="translate(-13.47 -13.77)"/><path class="cls-3" d="M167.37,25.25V27a4.16,4.16,0,0,0-2.67-1.08A3.4,3.4,0,0,0,162.15,27a3.67,3.67,0,0,0-1.05,2.65,3.58,3.58,0,0,0,1.05,2.61,3.46,3.46,0,0,0,2.55,1.06,3.2,3.2,0,0,0,1.34-.26,5.73,5.73,0,0,0,.63-.34,6,6,0,0,0,.7-.52V34a5.35,5.35,0,0,1-2.68.71,5,5,0,0,1-5.08-5,5,5,0,0,1,1.25-3.35,4.93,4.93,0,0,1,3.95-1.81A5.2,5.2,0,0,1,167.37,25.25Z" transform="translate(-13.47 -13.77)"/><path class="cls-3" d="M173.82,28.64l3.83-3.92h2l-4.44,4.45,4.47,5.38h-2l-3.54-4.37-.31.3v4.07h-1.48V24.72h1.48v3.92Z" transform="translate(-13.47 -13.77)"/><path class="cls-3" d="M34.5,40.07a11.08,11.08,0,0,1-4.71,1.09h-.1a11.22,11.22,0,0,1-11-9h-5a16.17,16.17,0,0,0,16,14h.1a16.07,16.07,0,0,0,8.36-2.41Z" transform="translate(-13.47 -13.77)"/><path class="cls-3" d="M31.69,13.87v5a11.21,11.21,0,0,1,9.23,11c0,.09,0,.18,0,.26A11.08,11.08,0,0,1,40,34.35L43.69,38a16.21,16.21,0,0,0,2.19-7.85c0-.09,0-.18,0-.26A16.17,16.17,0,0,0,31.69,13.87Z" transform="translate(-13.47 -13.77)"/></svg>