<?xml version="1.0" encoding="utf-8"?>
<!-- Generator: Adobe Illustrator 24.1.2, SVG Export Plug-In . SVG Version: 6.00 Build 0)  -->
<svg version="1.1" id="Layer_1" xmlns="http://www.w3.org/2000/svg" xmlns:xlink="http://www.w3.org/1999/xlink" x="0px" y="0px"
	 viewBox="0 0 58.92 62" style="enable-background:new 0 0 58.92 62;" xml:space="preserve">
<style type="text/css">
	.st0{fill:url(#SVGID_1_);}
	.st1{fill:#2062AF;}
</style>
<g>
	<linearGradient id="SVGID_1_" gradientUnits="userSpaceOnUse" x1="46.6741" y1="48.2222" x2="15.7939" y2="16.7805">
		<stop  offset="0" style="stop-color:#6F7481"/>
		<stop  offset="0.2262" style="stop-color:#575B62"/>
		<stop  offset="0.762" style="stop-color:#222325"/>
		<stop  offset="1" style="stop-color:#010101"/>
	</linearGradient>
	<path class="st0" d="M46.9,51.28l3.87-3.87L21.29,17.93c2.3-1.49,5.03-2.37,7.97-2.37c0.04,0,0.09,0.01,0.13,0.01V9.09
		c-0.04,0-0.08-0.01-0.13-0.01C17.6,9.08,8.14,18.54,8.14,30.2c0,0.12,0.02,0.23,0.02,0.35h6.48c0-0.12-0.02-0.23-0.02-0.35
		c0-3.17,1.01-6.09,2.72-8.48L46.9,51.28z"/>
	<path class="st1" d="M35.46,43.24c-1.86,0.88-3.93,1.4-6.12,1.42c-0.04,0-0.08,0.01-0.13,0.01c-7.07,0-12.93-5.04-14.27-11.71H8.4
		C9.8,43.21,18.57,51.12,29.21,51.12c0.04,0,0.08-0.01,0.13-0.01c3.99-0.02,7.7-1.18,10.87-3.13L35.46,43.24z"/>
	<path class="st1" d="M31.81,9.21v6.54c6.81,1.23,11.99,7.16,11.99,14.33c0,0.12-0.01,0.23-0.02,0.34
		c-0.04,1.92-0.46,3.74-1.18,5.41l4.79,4.79c1.75-3.01,2.78-6.48,2.84-10.2c0-0.12,0.02-0.23,0.02-0.34
		C50.26,19.34,42.21,10.49,31.81,9.21z"/>
</g>
</svg>
