<?xml version="1.0" encoding="utf-8"?>
<!-- Generator: Adobe Illustrator 24.1.2, SVG Export Plug-In . SVG Version: 6.00 Build 0)  -->
<svg version="1.1" id="Layer_1" xmlns="http://www.w3.org/2000/svg" xmlns:xlink="http://www.w3.org/1999/xlink" x="0px" y="0px"
	 viewBox="0 0 58.92 62" style="enable-background:new 0 0 58.92 62;" xml:space="preserve">
<style type="text/css">
	.st0{fill:#FFFFFF;}
</style>
<g>
	<path class="st0" d="M46.97,51.37l3.88-3.88L21.27,17.91c2.3-1.5,5.05-2.38,8-2.38c0.04,0,0.09,0.01,0.13,0.01v-6.5
		c-0.04,0-0.09-0.01-0.13-0.01c-11.71,0-21.2,9.49-21.2,21.2c0,0.12,0.02,0.23,0.02,0.35h6.5c0-0.12-0.02-0.23-0.02-0.35
		c0-3.18,1.02-6.11,2.73-8.51L46.97,51.37z"/>
	<path class="st0" d="M35.48,43.31c-1.86,0.89-3.94,1.4-6.14,1.42c-0.04,0-0.08,0.01-0.13,0.01c-7.09,0-12.98-5.05-14.32-11.75H8.33
		c1.41,10.29,10.21,18.22,20.88,18.22c0.04,0,0.08-0.01,0.13-0.01c4-0.02,7.72-1.18,10.9-3.14L35.48,43.31z"/>
	<path class="st0" d="M31.83,9.16v6.56c6.84,1.23,12.03,7.18,12.03,14.37c0,0.12-0.01,0.23-0.02,0.34
		c-0.04,1.92-0.47,3.75-1.18,5.43l4.81,4.81c1.75-3.02,2.79-6.5,2.85-10.23c0-0.12,0.02-0.23,0.02-0.34
		C50.33,19.32,42.25,10.45,31.83,9.16z"/>
</g>
</svg>
